%TF.GenerationSoftware,KiCad,Pcbnew,(6.0.7)*%
%TF.CreationDate,2022-09-26T14:07:28+03:00*%
%TF.ProjectId,202-combi-v0.2,3230322d-636f-46d6-9269-2d76302e322e,rev?*%
%TF.SameCoordinates,PX328b740PY3479d68*%
%TF.FileFunction,Soldermask,Top*%
%TF.FilePolarity,Negative*%
%FSLAX46Y46*%
G04 Gerber Fmt 4.6, Leading zero omitted, Abs format (unit mm)*
G04 Created by KiCad (PCBNEW (6.0.7)) date 2022-09-26 14:07:28*
%MOMM*%
%LPD*%
G01*
G04 APERTURE LIST*
G04 Aperture macros list*
%AMRoundRect*
0 Rectangle with rounded corners*
0 $1 Rounding radius*
0 $2 $3 $4 $5 $6 $7 $8 $9 X,Y pos of 4 corners*
0 Add a 4 corners polygon primitive as box body*
4,1,4,$2,$3,$4,$5,$6,$7,$8,$9,$2,$3,0*
0 Add four circle primitives for the rounded corners*
1,1,$1+$1,$2,$3*
1,1,$1+$1,$4,$5*
1,1,$1+$1,$6,$7*
1,1,$1+$1,$8,$9*
0 Add four rect primitives between the rounded corners*
20,1,$1+$1,$2,$3,$4,$5,0*
20,1,$1+$1,$4,$5,$6,$7,0*
20,1,$1+$1,$6,$7,$8,$9,0*
20,1,$1+$1,$8,$9,$2,$3,0*%
G04 Aperture macros list end*
%ADD10R,0.711200X2.006600*%
%ADD11R,2.692400X1.397000*%
%ADD12R,0.990600X2.590800*%
%ADD13R,1.193800X1.193800*%
%ADD14R,1.498600X2.590800*%
%ADD15R,1.955432X0.420766*%
%ADD16RoundRect,0.135000X0.185000X-0.135000X0.185000X0.135000X-0.185000X0.135000X-0.185000X-0.135000X0*%
%ADD17RoundRect,0.140000X-0.140000X-0.170000X0.140000X-0.170000X0.140000X0.170000X-0.140000X0.170000X0*%
%ADD18RoundRect,0.135000X-0.185000X0.135000X-0.185000X-0.135000X0.185000X-0.135000X0.185000X0.135000X0*%
%ADD19C,2.200000*%
%ADD20R,0.200000X0.600000*%
%ADD21R,1.200000X0.400000*%
%ADD22RoundRect,0.140000X0.170000X-0.140000X0.170000X0.140000X-0.170000X0.140000X-0.170000X-0.140000X0*%
%ADD23R,0.700000X0.200000*%
%ADD24R,0.200000X0.549999*%
%ADD25R,0.549999X0.200000*%
%ADD26R,2.799999X2.799999*%
G04 APERTURE END LIST*
D10*
%TO.C,J1*%
X11047999Y-14223351D03*
X9947999Y-14223351D03*
X8847998Y-14223351D03*
X7747998Y-14223351D03*
X6647998Y-14223351D03*
X5547997Y-14223351D03*
X4448000Y-14223351D03*
X3347999Y-14223351D03*
D11*
X9647999Y-1523351D03*
D12*
X1248001Y-13723350D03*
D11*
X4747999Y-1523351D03*
D13*
X12698001Y-1423349D03*
D14*
X14548000Y-13723349D03*
%TD*%
D15*
%TO.C,U5*%
X19049616Y-21612439D03*
X19049616Y-22262437D03*
X19049616Y-22912439D03*
X19049616Y-23562437D03*
X19049616Y-24212439D03*
X19049616Y-24862437D03*
X19049616Y-25512439D03*
X19049616Y-26162437D03*
X24800384Y-26162437D03*
X24800384Y-25512439D03*
X24800384Y-24862437D03*
X24800384Y-24212439D03*
X24800384Y-23562437D03*
X24800384Y-22912439D03*
X24800384Y-22262437D03*
X24800384Y-21612439D03*
%TD*%
D16*
%TO.C,R2*%
X21500000Y-30085000D03*
X21500000Y-29065000D03*
%TD*%
D17*
%TO.C,C17*%
X24095000Y-19925000D03*
X25055000Y-19925000D03*
%TD*%
D16*
%TO.C,R1*%
X19275000Y-30100000D03*
X19275000Y-29080000D03*
%TD*%
D18*
%TO.C,R4*%
X20450000Y-29080000D03*
X20450000Y-30100000D03*
%TD*%
D19*
%TO.C,H1*%
X56000000Y-29975000D03*
%TD*%
D20*
%TO.C,D1*%
X11525000Y-17075000D03*
X10625000Y-17075000D03*
X9825000Y-17075000D03*
X9025000Y-17075000D03*
X8125000Y-17075000D03*
X8525000Y-18025000D03*
X9425000Y-18025000D03*
X10225000Y-18025000D03*
X11125000Y-18025000D03*
%TD*%
D21*
%TO.C,U2*%
X28075000Y-21800000D03*
X28075000Y-22450000D03*
X28075000Y-23100000D03*
X28075000Y-23750000D03*
X28075000Y-24400000D03*
X28075000Y-25050000D03*
X28075000Y-25700000D03*
X34975000Y-25700000D03*
X34975000Y-25050000D03*
X34975000Y-24400000D03*
X34975000Y-23750000D03*
X34975000Y-23100000D03*
X34975000Y-22450000D03*
X34975000Y-21800000D03*
%TD*%
D22*
%TO.C,C6*%
X26575000Y-20775000D03*
X26575000Y-19815000D03*
%TD*%
D23*
%TO.C,P4*%
X11535394Y-21784155D03*
X11535394Y-22184155D03*
X11535394Y-22584155D03*
X11535394Y-22984155D03*
X11535394Y-23384155D03*
X11535394Y-23784155D03*
X11535394Y-24184155D03*
X11535394Y-24584155D03*
X11535394Y-24984155D03*
X11535394Y-25384155D03*
X11535394Y-25784155D03*
X11535394Y-26184155D03*
X11535394Y-26584155D03*
X11535394Y-26984155D03*
X11535394Y-27384155D03*
X11535394Y-27784155D03*
X11535394Y-28184155D03*
X8455394Y-28184155D03*
X8455394Y-27784155D03*
X8455394Y-27384155D03*
X8455394Y-26984155D03*
X8455394Y-26584155D03*
X8455394Y-26184155D03*
X8455394Y-25784155D03*
X8455394Y-25384155D03*
X8455394Y-24984155D03*
X8455394Y-24584155D03*
X8455394Y-24184155D03*
X8455394Y-23784155D03*
X8455394Y-23384155D03*
X8455394Y-22984155D03*
X8455394Y-22584155D03*
X8455394Y-22184155D03*
X8455394Y-21784155D03*
%TD*%
D24*
%TO.C,U4*%
X42874998Y-26875000D03*
X43274999Y-26875000D03*
X43674999Y-26875000D03*
X44074998Y-26875000D03*
X44475000Y-26875000D03*
X44874999Y-26875000D03*
X45274998Y-26875000D03*
X45675000Y-26875000D03*
D25*
X46200000Y-26350000D03*
X46200000Y-25949998D03*
X46200000Y-25549999D03*
X46200000Y-25150000D03*
X46200000Y-24749998D03*
X46200000Y-24349999D03*
X46200000Y-23949999D03*
X46200000Y-23549998D03*
D24*
X45675000Y-23025000D03*
X45274998Y-23025000D03*
X44874999Y-23025000D03*
X44475000Y-23025000D03*
X44074998Y-23025000D03*
X43674999Y-23025000D03*
X43274999Y-23025000D03*
X42874998Y-23025000D03*
D25*
X42350000Y-23549998D03*
X42350000Y-23949999D03*
X42350000Y-24349999D03*
X42350000Y-24749998D03*
X42350000Y-25150000D03*
X42350000Y-25549999D03*
X42350000Y-25949998D03*
X42350000Y-26350000D03*
D26*
X44275000Y-24949997D03*
%TD*%
D17*
%TO.C,C7*%
X36420000Y-20775000D03*
X37380000Y-20775000D03*
%TD*%
D23*
%TO.C,P3*%
X59464606Y-28165845D03*
X59464606Y-27765845D03*
X59464606Y-27365845D03*
X59464606Y-26965845D03*
X59464606Y-26565845D03*
X59464606Y-26165845D03*
X59464606Y-25765845D03*
X59464606Y-25365845D03*
X59464606Y-24965845D03*
X59464606Y-24565845D03*
X59464606Y-24165845D03*
X59464606Y-23765845D03*
X59464606Y-23365845D03*
X59464606Y-22965845D03*
X59464606Y-22565845D03*
X59464606Y-22165845D03*
X59464606Y-21765845D03*
X62544606Y-21765845D03*
X62544606Y-22165845D03*
X62544606Y-22565845D03*
X62544606Y-22965845D03*
X62544606Y-23365845D03*
X62544606Y-23765845D03*
X62544606Y-24165845D03*
X62544606Y-24565845D03*
X62544606Y-24965845D03*
X62544606Y-25365845D03*
X62544606Y-25765845D03*
X62544606Y-26165845D03*
X62544606Y-26565845D03*
X62544606Y-26965845D03*
X62544606Y-27365845D03*
X62544606Y-27765845D03*
X62544606Y-28165845D03*
%TD*%
D19*
%TO.C,H2*%
X15000000Y-29975000D03*
%TD*%
D18*
%TO.C,R3*%
X18100000Y-29080000D03*
X18100000Y-30100000D03*
%TD*%
M02*
