%TF.GenerationSoftware,KiCad,Pcbnew,(6.0.7)*%
%TF.CreationDate,2022-09-26T14:07:28+03:00*%
%TF.ProjectId,202-combi-v0.2,3230322d-636f-46d6-9269-2d76302e322e,rev?*%
%TF.SameCoordinates,PX328b740PY3479d68*%
%TF.FileFunction,Legend,Top*%
%TF.FilePolarity,Positive*%
%FSLAX46Y46*%
G04 Gerber Fmt 4.6, Leading zero omitted, Abs format (unit mm)*
G04 Created by KiCad (PCBNEW (6.0.7)) date 2022-09-26 14:07:28*
%MOMM*%
%LPD*%
G01*
G04 APERTURE LIST*
%ADD10C,0.200000*%
%ADD11C,0.150000*%
%ADD12C,0.120000*%
%ADD13C,0.127000*%
G04 APERTURE END LIST*
D10*
%TO.C,U5*%
X21163095Y-27524343D02*
X21163095Y-28171962D01*
X21210714Y-28248153D01*
X21258333Y-28286248D01*
X21353571Y-28324343D01*
X21544047Y-28324343D01*
X21639285Y-28286248D01*
X21686904Y-28248153D01*
X21734523Y-28171962D01*
X21734523Y-27524343D01*
X22686904Y-27524343D02*
X22210714Y-27524343D01*
X22163095Y-27905296D01*
X22210714Y-27867200D01*
X22305952Y-27829105D01*
X22544047Y-27829105D01*
X22639285Y-27867200D01*
X22686904Y-27905296D01*
X22734523Y-27981486D01*
X22734523Y-28171962D01*
X22686904Y-28248153D01*
X22639285Y-28286248D01*
X22544047Y-28324343D01*
X22305952Y-28324343D01*
X22210714Y-28286248D01*
X22163095Y-28248153D01*
%TO.C,R2*%
X21936904Y-31741666D02*
X21555952Y-32075000D01*
X21936904Y-32313095D02*
X21136904Y-32313095D01*
X21136904Y-31932142D01*
X21175000Y-31836904D01*
X21213095Y-31789285D01*
X21289285Y-31741666D01*
X21403571Y-31741666D01*
X21479761Y-31789285D01*
X21517857Y-31836904D01*
X21555952Y-31932142D01*
X21555952Y-32313095D01*
X21213095Y-31360714D02*
X21175000Y-31313095D01*
X21136904Y-31217857D01*
X21136904Y-30979761D01*
X21175000Y-30884523D01*
X21213095Y-30836904D01*
X21289285Y-30789285D01*
X21365476Y-30789285D01*
X21479761Y-30836904D01*
X21936904Y-31408333D01*
X21936904Y-30789285D01*
%TO.C,R1*%
X19611904Y-31706666D02*
X19230952Y-32040000D01*
X19611904Y-32278095D02*
X18811904Y-32278095D01*
X18811904Y-31897142D01*
X18850000Y-31801904D01*
X18888095Y-31754285D01*
X18964285Y-31706666D01*
X19078571Y-31706666D01*
X19154761Y-31754285D01*
X19192857Y-31801904D01*
X19230952Y-31897142D01*
X19230952Y-32278095D01*
X19611904Y-30754285D02*
X19611904Y-31325714D01*
X19611904Y-31040000D02*
X18811904Y-31040000D01*
X18926190Y-31135238D01*
X19002380Y-31230476D01*
X19040476Y-31325714D01*
%TO.C,R4*%
X20786904Y-31706666D02*
X20405952Y-32040000D01*
X20786904Y-32278095D02*
X19986904Y-32278095D01*
X19986904Y-31897142D01*
X20025000Y-31801904D01*
X20063095Y-31754285D01*
X20139285Y-31706666D01*
X20253571Y-31706666D01*
X20329761Y-31754285D01*
X20367857Y-31801904D01*
X20405952Y-31897142D01*
X20405952Y-32278095D01*
X20253571Y-30849523D02*
X20786904Y-30849523D01*
X19948809Y-31087619D02*
X20520238Y-31325714D01*
X20520238Y-30706666D01*
%TO.C,D1*%
X12411904Y-17861904D02*
X12411904Y-17061904D01*
X12650000Y-17061904D01*
X12792857Y-17100000D01*
X12888095Y-17176190D01*
X12935714Y-17252380D01*
X12983333Y-17404761D01*
X12983333Y-17519047D01*
X12935714Y-17671428D01*
X12888095Y-17747619D01*
X12792857Y-17823809D01*
X12650000Y-17861904D01*
X12411904Y-17861904D01*
X13935714Y-17861904D02*
X13364285Y-17861904D01*
X13650000Y-17861904D02*
X13650000Y-17061904D01*
X13554761Y-17176190D01*
X13459523Y-17252380D01*
X13364285Y-17290476D01*
D11*
%TO.C,U2*%
X31308095Y-17462380D02*
X31308095Y-18271904D01*
X31355714Y-18367142D01*
X31403333Y-18414761D01*
X31498571Y-18462380D01*
X31689047Y-18462380D01*
X31784285Y-18414761D01*
X31831904Y-18367142D01*
X31879523Y-18271904D01*
X31879523Y-17462380D01*
X32308095Y-17557619D02*
X32355714Y-17510000D01*
X32450952Y-17462380D01*
X32689047Y-17462380D01*
X32784285Y-17510000D01*
X32831904Y-17557619D01*
X32879523Y-17652857D01*
X32879523Y-17748095D01*
X32831904Y-17890952D01*
X32260476Y-18462380D01*
X32879523Y-18462380D01*
D10*
%TO.C,P4*%
X9161904Y-31311904D02*
X9161904Y-30511904D01*
X9542857Y-30511904D01*
X9638095Y-30550000D01*
X9685714Y-30588095D01*
X9733333Y-30664285D01*
X9733333Y-30778571D01*
X9685714Y-30854761D01*
X9638095Y-30892857D01*
X9542857Y-30930952D01*
X9161904Y-30930952D01*
X10590476Y-30778571D02*
X10590476Y-31311904D01*
X10352380Y-30473809D02*
X10114285Y-31045238D01*
X10733333Y-31045238D01*
%TO.C,C7*%
X36733333Y-19900714D02*
X36685714Y-19938809D01*
X36542857Y-19976904D01*
X36447619Y-19976904D01*
X36304761Y-19938809D01*
X36209523Y-19862619D01*
X36161904Y-19786428D01*
X36114285Y-19634047D01*
X36114285Y-19519761D01*
X36161904Y-19367380D01*
X36209523Y-19291190D01*
X36304761Y-19215000D01*
X36447619Y-19176904D01*
X36542857Y-19176904D01*
X36685714Y-19215000D01*
X36733333Y-19253095D01*
X37066666Y-19176904D02*
X37733333Y-19176904D01*
X37304761Y-19976904D01*
%TO.C,P3*%
X60211904Y-31211904D02*
X60211904Y-30411904D01*
X60592857Y-30411904D01*
X60688095Y-30450000D01*
X60735714Y-30488095D01*
X60783333Y-30564285D01*
X60783333Y-30678571D01*
X60735714Y-30754761D01*
X60688095Y-30792857D01*
X60592857Y-30830952D01*
X60211904Y-30830952D01*
X61116666Y-30411904D02*
X61735714Y-30411904D01*
X61402380Y-30716666D01*
X61545238Y-30716666D01*
X61640476Y-30754761D01*
X61688095Y-30792857D01*
X61735714Y-30869047D01*
X61735714Y-31059523D01*
X61688095Y-31135714D01*
X61640476Y-31173809D01*
X61545238Y-31211904D01*
X61259523Y-31211904D01*
X61164285Y-31173809D01*
X61116666Y-31135714D01*
%TO.C,R3*%
X18511904Y-31756666D02*
X18130952Y-32090000D01*
X18511904Y-32328095D02*
X17711904Y-32328095D01*
X17711904Y-31947142D01*
X17750000Y-31851904D01*
X17788095Y-31804285D01*
X17864285Y-31756666D01*
X17978571Y-31756666D01*
X18054761Y-31804285D01*
X18092857Y-31851904D01*
X18130952Y-31947142D01*
X18130952Y-32328095D01*
X17711904Y-31423333D02*
X17711904Y-30804285D01*
X18016666Y-31137619D01*
X18016666Y-30994761D01*
X18054761Y-30899523D01*
X18092857Y-30851904D01*
X18169047Y-30804285D01*
X18359523Y-30804285D01*
X18435714Y-30851904D01*
X18473809Y-30899523D01*
X18511904Y-30994761D01*
X18511904Y-31280476D01*
X18473809Y-31375714D01*
X18435714Y-31423333D01*
D12*
%TO.C,P8*%
X52731939Y-18686326D02*
G75*
G03*
X52731939Y-18686326I-100000J0D01*
G01*
%TO.C,J1*%
X15071100Y-12095209D02*
X15071100Y-696350D01*
X7921000Y-696350D02*
X7921000Y-950350D01*
X1024900Y-696350D02*
X1024900Y-12095210D01*
X15071100Y-696350D02*
X13601153Y-696350D01*
X11794849Y-696350D02*
X11301125Y-696350D01*
X3094873Y-696350D02*
X1024900Y-696350D01*
X7994874Y-696350D02*
X6401125Y-696350D01*
X2074809Y-15047350D02*
X2659659Y-15047350D01*
X11736339Y-15047350D02*
X13467191Y-15047350D01*
%TO.C,U5*%
X20527332Y-21387438D02*
X23322668Y-21387438D01*
X23322668Y-26387438D02*
X23322668Y-21387438D01*
X20527332Y-26387438D02*
X20527332Y-21387438D01*
X20527332Y-26387438D02*
X23322668Y-26387438D01*
X20364804Y-20912563D02*
G75*
G03*
X20364804Y-20912563I-250000J0D01*
G01*
%TO.C,R2*%
X21120000Y-29728641D02*
X21120000Y-29421359D01*
X21880000Y-29728641D02*
X21880000Y-29421359D01*
%TO.C,C17*%
X24467164Y-19565000D02*
X24682836Y-19565000D01*
X24467164Y-20285000D02*
X24682836Y-20285000D01*
%TO.C,R1*%
X19655000Y-29743641D02*
X19655000Y-29436359D01*
X18895000Y-29743641D02*
X18895000Y-29436359D01*
%TO.C,R4*%
X20070000Y-29436359D02*
X20070000Y-29743641D01*
X20830000Y-29436359D02*
X20830000Y-29743641D01*
%TO.C,D1*%
X8675000Y-16900000D02*
X8475000Y-16900000D01*
X10275000Y-16900000D02*
X10175000Y-16900000D01*
X9875000Y-18200000D02*
X9775000Y-18200000D01*
X7775000Y-18200000D02*
X7775000Y-17000000D01*
X10775000Y-18200000D02*
X10575000Y-18200000D01*
X11475000Y-18200000D02*
X11875000Y-18200000D01*
X9475000Y-16900000D02*
X9375000Y-16900000D01*
X11875000Y-18200000D02*
X11875000Y-17550000D01*
X9075000Y-18200000D02*
X8875000Y-18200000D01*
X8175000Y-18200000D02*
X7775000Y-18200000D01*
D11*
%TO.C,U2*%
X28750000Y-20475000D02*
X34300000Y-20475000D01*
X28750000Y-27025000D02*
X28750000Y-26125000D01*
X34300000Y-20475000D02*
X34300000Y-21375000D01*
X28750000Y-21275000D02*
X27475000Y-21275000D01*
X28750000Y-27025000D02*
X34300000Y-27025000D01*
X28750000Y-20475000D02*
X28750000Y-21275000D01*
X34300000Y-27025000D02*
X34300000Y-26125000D01*
D12*
%TO.C,C6*%
X26935000Y-20402836D02*
X26935000Y-20187164D01*
X26215000Y-20402836D02*
X26215000Y-20187164D01*
D13*
%TO.C,P4*%
X8555394Y-20284155D02*
X8555394Y-21364155D01*
X11435394Y-20284155D02*
X11435394Y-21364155D01*
X11435394Y-29664155D02*
X11435394Y-28584155D01*
X11435394Y-20284155D02*
X8555394Y-20284155D01*
X8555394Y-29664155D02*
X11435394Y-29664155D01*
X8555394Y-29664155D02*
X8555394Y-28584155D01*
D10*
X11934455Y-21307358D02*
G75*
G03*
X11934455Y-21307358I-100000J0D01*
G01*
D12*
%TO.C,C7*%
X36792164Y-21135000D02*
X37007836Y-21135000D01*
X36792164Y-20415000D02*
X37007836Y-20415000D01*
D13*
%TO.C,P3*%
X59564606Y-20285845D02*
X59564606Y-21365845D01*
X62444606Y-20285845D02*
X59564606Y-20285845D01*
X59564606Y-29665845D02*
X59564606Y-28585845D01*
X59564606Y-29665845D02*
X62444606Y-29665845D01*
X62444606Y-20285845D02*
X62444606Y-21365845D01*
X62444606Y-29665845D02*
X62444606Y-28585845D01*
D10*
X59265545Y-28642642D02*
G75*
G03*
X59265545Y-28642642I-100000J0D01*
G01*
D12*
%TO.C,R3*%
X17720000Y-29436359D02*
X17720000Y-29743641D01*
X18480000Y-29436359D02*
X18480000Y-29743641D01*
%TD*%
M02*
