%TF.GenerationSoftware,KiCad,Pcbnew,(6.0.7)*%
%TF.CreationDate,2022-09-26T14:07:28+03:00*%
%TF.ProjectId,202-combi-v0.2,3230322d-636f-46d6-9269-2d76302e322e,rev?*%
%TF.SameCoordinates,PX328b740PY3479d68*%
%TF.FileFunction,Copper,L4,Inr*%
%TF.FilePolarity,Positive*%
%FSLAX46Y46*%
G04 Gerber Fmt 4.6, Leading zero omitted, Abs format (unit mm)*
G04 Created by KiCad (PCBNEW (6.0.7)) date 2022-09-26 14:07:28*
%MOMM*%
%LPD*%
G01*
G04 APERTURE LIST*
%TA.AperFunction,ViaPad*%
%ADD10C,0.500000*%
%TD*%
%TA.AperFunction,ViaPad*%
%ADD11C,0.600000*%
%TD*%
%TA.AperFunction,Conductor*%
%ADD12C,0.400000*%
%TD*%
%TA.AperFunction,Conductor*%
%ADD13C,0.100000*%
%TD*%
%TA.AperFunction,Conductor*%
%ADD14C,0.150000*%
%TD*%
%TA.AperFunction,Conductor*%
%ADD15C,0.120000*%
%TD*%
G04 APERTURE END LIST*
D10*
%TO.N,/SYS_EX_nINT*%
X48175000Y-20925000D03*
X55900000Y-25175000D03*
D11*
%TO.N,+2V8*%
X14050000Y-22350000D03*
%TO.N,+3.3V*%
X19000000Y-19675000D03*
D10*
%TO.N,GND*%
X16525000Y-20025000D03*
X15325000Y-20025000D03*
X15912500Y-20025000D03*
X51825000Y-23575000D03*
X53275000Y-19825000D03*
X6550000Y-1525000D03*
X13675000Y-1425000D03*
X20475000Y-30875000D03*
X44250000Y-24950000D03*
X50450000Y-22375000D03*
X53725000Y-24950000D03*
D11*
X7175000Y-10200000D03*
D10*
X63300000Y-26175000D03*
X18125000Y-30825000D03*
X37400000Y-20175000D03*
X2675000Y-17750000D03*
X7800000Y-23775000D03*
X49050000Y-29975000D03*
X9825000Y-16375000D03*
X9250000Y-23500000D03*
X7725000Y-27425000D03*
X12700000Y-2425000D03*
X51800000Y-21175000D03*
X23475000Y-19950000D03*
D11*
X8225000Y-10175000D03*
D10*
X14550000Y-15425000D03*
X17650000Y-26150000D03*
X5550000Y-15575000D03*
X11750000Y-1425000D03*
X63350000Y-22575000D03*
X37800000Y-21450000D03*
X29150000Y-26200000D03*
X7750000Y-24975000D03*
X10850000Y-23375000D03*
X13450000Y-13725000D03*
X37625000Y-26025000D03*
X3050000Y-1525000D03*
X4750000Y-2650000D03*
X1500000Y-11875000D03*
X63300000Y-23775000D03*
X7775000Y-26175000D03*
X63300000Y-28175000D03*
X25900000Y-19800000D03*
X63350000Y-24950000D03*
X2025000Y-13725000D03*
X51850000Y-22350000D03*
X58625000Y-26575000D03*
X5550000Y-12875000D03*
X25650000Y-20950000D03*
X9125000Y-21750000D03*
X47375000Y-19475000D03*
X14525000Y-12025000D03*
X2450000Y-15725000D03*
%TO.N,+3.3V*%
X10825000Y-21800000D03*
X50500000Y-23575000D03*
X8850000Y-4750000D03*
X29250000Y-21900000D03*
X59900000Y-28825000D03*
X9000000Y-10875000D03*
X6225000Y-10925000D03*
X2325000Y-16450000D03*
D11*
X48975000Y-19650000D03*
D10*
X10225000Y-18650000D03*
D11*
X7747998Y-12647998D03*
D10*
%TO.N,+1V8*%
X24800000Y-20825000D03*
X12350000Y-22975000D03*
X60575000Y-27400000D03*
X21500000Y-30900000D03*
X44475000Y-27525000D03*
X33850000Y-21825000D03*
X50525000Y-24775000D03*
X50462500Y-21175000D03*
%TO.N,+2V8*%
X12250000Y-22175000D03*
X58750000Y-27775000D03*
%TO.N,/EXTCLK*%
X4075000Y-17725000D03*
X54275000Y-18575000D03*
X46250000Y-19375000D03*
%TO.N,/LEFT_SCL*%
X55125000Y-19700000D03*
X54300000Y-25400000D03*
%TO.N,/RIGHT_SCL*%
X48475000Y-24950000D03*
X38400000Y-20075000D03*
%TO.N,/LEFT_SDA*%
X54825000Y-25925000D03*
X55800000Y-19325000D03*
%TO.N,/RIGHT_SDA*%
X48912500Y-25425000D03*
X39375000Y-19975000D03*
%TO.N,/LEFT_PWRDN*%
X20425000Y-22950000D03*
X41361535Y-25638596D03*
X60400000Y-19425000D03*
X63275000Y-27350000D03*
%TO.N,/LEFT_RESET*%
X20875000Y-22350000D03*
X60025000Y-18575000D03*
X61660439Y-29010439D03*
X40748433Y-25948433D03*
%TO.N,/LEFT_ATT_INT*%
X61200000Y-27675000D03*
X41675000Y-26520500D03*
%TO.N,/LEFT_ATT_XSHUT*%
X58474500Y-25250000D03*
X39800000Y-24925000D03*
%TO.N,/RIGHT_PWRDN*%
X26275000Y-26175000D03*
X39050000Y-25425000D03*
X9300000Y-22575000D03*
%TO.N,/RIGHT_RESET*%
X21025000Y-20640500D03*
X8575000Y-20750000D03*
X40850000Y-23625000D03*
%TO.N,/RIGHT_ATT_INT*%
X40225000Y-23775000D03*
X21775500Y-22275000D03*
X22377061Y-20347939D03*
X13550000Y-25275000D03*
%TO.N,/RIGHT_ATT_XSHUT*%
X22200000Y-21700000D03*
X12700000Y-25525000D03*
X39300000Y-23825000D03*
%TO.N,Net-(R4-Pad1)*%
X20425000Y-28300000D03*
X19200000Y-31625000D03*
%TO.N,/SYS_SDA_1V8*%
X24000000Y-20800000D03*
X47147939Y-24802061D03*
%TO.N,/SYS_SCL_1V8*%
X47300000Y-25475000D03*
X23400000Y-20600000D03*
%TO.N,/DAT2*%
X51750000Y-29375000D03*
X11050000Y-12825000D03*
%TO.N,/DAT3*%
X51800000Y-20200000D03*
X9950000Y-12850000D03*
%TO.N,/CMD*%
X8850000Y-12850000D03*
X53550000Y-26625000D03*
%TO.N,/CLK*%
X6650000Y-12850000D03*
X53400000Y-30975000D03*
%TO.N,/DAT0*%
X50575000Y-25800000D03*
X4450000Y-12800000D03*
%TO.N,/DAT1*%
X3350000Y-12825000D03*
X53225000Y-29575000D03*
%TO.N,/CDS*%
X51562500Y-28225000D03*
X8762500Y-3587500D03*
%TO.N,/I2C_SCL_1v8_LEFT*%
X56125000Y-26150000D03*
X30125000Y-21850000D03*
%TO.N,/I2C_SDA_1v8_LEFT*%
X30000000Y-20925000D03*
X57469990Y-25569990D03*
%TO.N,/I2S_SCK*%
X50550000Y-30750000D03*
X10275000Y-29225000D03*
X56813628Y-25508498D03*
X60400000Y-31225000D03*
%TO.N,/I2S_LRCLK*%
X10725000Y-28625000D03*
X56925000Y-24775000D03*
X46550000Y-27081500D03*
X59763999Y-31216378D03*
%TO.N,/I2S_D1*%
X58475000Y-22100000D03*
X59100000Y-31225000D03*
X12550000Y-27200000D03*
X47075000Y-26625000D03*
%TO.N,/I2S_D2*%
X58700000Y-21475000D03*
X11525000Y-28925000D03*
X48900000Y-27750000D03*
%TO.N,/CSI_L_RX_CLK_N*%
X56172745Y-24565000D03*
%TO.N,/CSI_L_RX_CLK_P*%
X56172745Y-23785000D03*
%TO.N,/CSI_L_RX_D2_N*%
X61690000Y-21300000D03*
%TO.N,/CSI_L_RX_D2_P*%
X60910000Y-21300000D03*
%TO.N,/CSI_L_RX_D1_N*%
X61050000Y-23975845D03*
%TO.N,/CSI_L_RX_D1_P*%
X61050000Y-24755845D03*
%TO.N,/CSI_L_RX_D0_N*%
X61753547Y-25175845D03*
%TO.N,/CSI_L_RX_D0_P*%
X61753547Y-25955845D03*
%TO.N,/I2C_SCL_1v8_RIGHT*%
X29875000Y-20225000D03*
X13275000Y-26975000D03*
%TO.N,/I2C_SDA_1v8_RIGHT*%
X30375000Y-19775000D03*
X10175000Y-26750000D03*
%TO.N,/CSI_R_RX_CLK_N*%
X9539755Y-28374155D03*
%TO.N,/CSI_R_RX_CLK_P*%
X9539755Y-27594155D03*
%TO.N,/CSI_R_RX_D1_N*%
X48804545Y-22165000D03*
X9263544Y-25974155D03*
X37822935Y-25203609D03*
%TO.N,/CSI_R_RX_D1_P*%
X48804545Y-21385000D03*
X37271391Y-24652065D03*
X9263544Y-25194155D03*
%TO.N,/CSI_R_RX_D0_N*%
X9750000Y-24774155D03*
%TO.N,/CSI_R_RX_D0_P*%
X9750000Y-23994155D03*
%TO.N,/OE_CAM*%
X33600000Y-19725000D03*
X51800000Y-26000000D03*
%TO.N,/SYS_SCL*%
X48900000Y-26225000D03*
X33350000Y-22825000D03*
%TO.N,/SYS_SDA*%
X38675000Y-21525000D03*
X47939447Y-25819144D03*
%TD*%
D12*
%TO.N,+2V8*%
X18500000Y-22350000D02*
X14050000Y-22350000D01*
X22100000Y-18750000D02*
X18500000Y-22350000D01*
X25850000Y-18750000D02*
X22100000Y-18750000D01*
X26900000Y-19800000D02*
X25850000Y-18750000D01*
X26900000Y-21250000D02*
X26900000Y-19800000D01*
X28250000Y-22600000D02*
X26900000Y-21250000D01*
X30400000Y-22600000D02*
X28250000Y-22600000D01*
X32175000Y-20825000D02*
X30400000Y-22600000D01*
X42100000Y-20825000D02*
X32175000Y-20825000D01*
X44750000Y-23475000D02*
X42100000Y-20825000D01*
X48925000Y-23475000D02*
X44750000Y-23475000D01*
X49625000Y-24175000D02*
X48925000Y-23475000D01*
X50875000Y-24175000D02*
X49625000Y-24175000D01*
X51175000Y-26432106D02*
X51175000Y-24475000D01*
X51175000Y-24475000D02*
X50875000Y-24175000D01*
X52542894Y-27800000D02*
X51175000Y-26432106D01*
X56900000Y-27800000D02*
X52542894Y-27800000D01*
X58275000Y-29175000D02*
X56900000Y-27800000D01*
X59525000Y-29450000D02*
X59250000Y-29175000D01*
X60325000Y-29450000D02*
X59525000Y-29450000D01*
X60650000Y-29125000D02*
X60325000Y-29450000D01*
X59250000Y-29175000D02*
X58275000Y-29175000D01*
X60650000Y-28675000D02*
X60650000Y-29125000D01*
X59750000Y-27775000D02*
X60650000Y-28675000D01*
X58750000Y-27775000D02*
X59750000Y-27775000D01*
X12900000Y-22175000D02*
X12250000Y-22175000D01*
X13075000Y-22350000D02*
X12900000Y-22175000D01*
X14050000Y-22350000D02*
X13075000Y-22350000D01*
%TO.N,+3.3V*%
X10225000Y-18650000D02*
X10225000Y-20125000D01*
X57275000Y-27250000D02*
X53250000Y-27250000D01*
X10225000Y-20125000D02*
X10825000Y-20725000D01*
X7747998Y-12227002D02*
X7747998Y-12127002D01*
X6100000Y-16450000D02*
X7650000Y-16450000D01*
X7747998Y-12227002D02*
X7747998Y-14802002D01*
X26800000Y-18025000D02*
X27930000Y-19155000D01*
X29250000Y-19350000D02*
X29055000Y-19155000D01*
X9000000Y-4900000D02*
X9000000Y-10875000D01*
X7650000Y-16450000D02*
X9850000Y-18650000D01*
X9850000Y-18650000D02*
X10225000Y-18650000D01*
X17450000Y-19625000D02*
X16475000Y-18650000D01*
X29055000Y-19155000D02*
X27930000Y-19155000D01*
X48975000Y-19650000D02*
X48350000Y-19650000D01*
X47750000Y-22800000D02*
X47450000Y-22500000D01*
X59900000Y-28825000D02*
X59575000Y-28500000D01*
X20025000Y-19625000D02*
X21625000Y-18025000D01*
X43555000Y-19155000D02*
X27930000Y-19155000D01*
X48350000Y-19650000D02*
X47450000Y-20550000D01*
X16475000Y-18650000D02*
X10225000Y-18650000D01*
X47450000Y-22500000D02*
X47450000Y-20550000D01*
X10825000Y-20725000D02*
X10825000Y-21800000D01*
X52875000Y-25431102D02*
X51018898Y-23575000D01*
X7747998Y-12127002D02*
X7427002Y-12127002D01*
X6100000Y-16450000D02*
X2325000Y-16450000D01*
X44950000Y-20550000D02*
X43555000Y-19155000D01*
X49725000Y-22800000D02*
X47750000Y-22800000D01*
X59575000Y-28500000D02*
X58525000Y-28500000D01*
X7427002Y-12127002D02*
X6225000Y-10925000D01*
X20025000Y-19625000D02*
X17450000Y-19625000D01*
X52875000Y-26875000D02*
X52875000Y-25431102D01*
X47450000Y-20550000D02*
X44950000Y-20550000D01*
X50500000Y-23575000D02*
X49725000Y-22800000D01*
X7747998Y-14802002D02*
X6100000Y-16450000D01*
X51018898Y-23575000D02*
X50500000Y-23575000D01*
X29250000Y-21900000D02*
X29250000Y-19350000D01*
X53250000Y-27250000D02*
X52875000Y-26875000D01*
X8850000Y-4750000D02*
X9000000Y-4900000D01*
X21625000Y-18025000D02*
X26800000Y-18025000D01*
X7747998Y-12647998D02*
X7747998Y-12227002D01*
X7747998Y-12127002D02*
X9000000Y-10875000D01*
X58525000Y-28500000D02*
X57275000Y-27250000D01*
%TO.N,+1V8*%
X57000000Y-23675000D02*
X58650000Y-23675000D01*
X49775000Y-25400000D02*
X49775000Y-25525000D01*
X48475000Y-24100000D02*
X49775000Y-25400000D01*
X44475000Y-27525000D02*
X45225000Y-26775000D01*
X60575000Y-27350000D02*
X60575000Y-27400000D01*
X50525000Y-24775000D02*
X50525000Y-24800000D01*
X32625000Y-21825000D02*
X31100000Y-23350000D01*
D13*
X21500000Y-30900000D02*
X21500000Y-24700000D01*
D12*
X61150000Y-26775000D02*
X60575000Y-27350000D01*
X51875000Y-19000000D02*
X53725000Y-19000000D01*
X42925000Y-24250000D02*
X42925000Y-25975000D01*
X41225000Y-22550000D02*
X42925000Y-24250000D01*
X62575000Y-30700000D02*
X62575000Y-27900000D01*
X36175000Y-22550000D02*
X41225000Y-22550000D01*
X46475000Y-24100000D02*
X48475000Y-24100000D01*
X62575000Y-27900000D02*
X61450000Y-26775000D01*
X18875000Y-24575000D02*
X21625000Y-24575000D01*
X59700000Y-24725000D02*
X59700000Y-26775000D01*
X13345000Y-23970000D02*
X18270000Y-23970000D01*
X59700000Y-26775000D02*
X60325000Y-27400000D01*
X49775000Y-28575000D02*
X53350000Y-32150000D01*
X61450000Y-26775000D02*
X61150000Y-26775000D01*
X22875000Y-24575000D02*
X24800000Y-22650000D01*
X50462500Y-21175000D02*
X50462500Y-20412500D01*
X24800000Y-22650000D02*
X24800000Y-20825000D01*
X21625000Y-24575000D02*
X22875000Y-24575000D01*
X31100000Y-23350000D02*
X25500000Y-23350000D01*
X49775000Y-25525000D02*
X49775000Y-28575000D01*
X18270000Y-23970000D02*
X18875000Y-24575000D01*
X25500000Y-23350000D02*
X24800000Y-22650000D01*
X58650000Y-23675000D02*
X59700000Y-24725000D01*
X45225000Y-26775000D02*
X45225000Y-25350000D01*
X45225000Y-25350000D02*
X46475000Y-24100000D01*
X33850000Y-21825000D02*
X35450000Y-21825000D01*
X33850000Y-21825000D02*
X32625000Y-21825000D01*
X50462500Y-20412500D02*
X51875000Y-19000000D01*
X50525000Y-24800000D02*
X49800000Y-25525000D01*
X35450000Y-21825000D02*
X36175000Y-22550000D01*
X54100000Y-19375000D02*
X54100000Y-20775000D01*
X53725000Y-19000000D02*
X54100000Y-19375000D01*
X42925000Y-25975000D02*
X44475000Y-27525000D01*
X49800000Y-25525000D02*
X49775000Y-25525000D01*
D13*
X21500000Y-24700000D02*
X21625000Y-24575000D01*
D12*
X12350000Y-22975000D02*
X13345000Y-23970000D01*
X54100000Y-20775000D02*
X57000000Y-23675000D01*
X61125000Y-32150000D02*
X62575000Y-30700000D01*
X60325000Y-27400000D02*
X60575000Y-27400000D01*
X53350000Y-32150000D02*
X61125000Y-32150000D01*
D14*
%TO.N,/LEFT_PWRDN*%
X22075000Y-27550000D02*
X22075000Y-31121446D01*
X17525000Y-31400000D02*
X17525000Y-27500000D01*
X21096446Y-32100000D02*
X22075000Y-31121446D01*
X59523223Y-18923223D02*
X59523223Y-18451777D01*
X60400000Y-19425000D02*
X60025000Y-19425000D01*
X12475000Y-6300000D02*
X10480000Y-4305000D01*
X7939277Y-18889277D02*
X10050000Y-21000000D01*
X18225000Y-32100000D02*
X21096446Y-32100000D01*
X38650000Y-26950000D02*
X40200000Y-25400000D01*
X10550000Y-22600000D02*
X11075000Y-22600000D01*
X10480000Y-4305000D02*
X7320000Y-4305000D01*
X6425000Y-17000000D02*
X7939277Y-18514277D01*
X1800000Y-14875000D02*
X1800000Y-16800000D01*
X7939277Y-18514277D02*
X7939277Y-18889277D01*
X13650000Y-17425000D02*
X12475000Y-16250000D01*
X60025000Y-19425000D02*
X59523223Y-18923223D01*
X22675000Y-26950000D02*
X38650000Y-26950000D01*
X58496446Y-17425000D02*
X13650000Y-17425000D01*
X11400000Y-23675000D02*
X10800000Y-24275000D01*
X10050000Y-22100000D02*
X10550000Y-22600000D01*
X1800000Y-16800000D02*
X2000000Y-17000000D01*
X10800000Y-25025000D02*
X11775000Y-26000000D01*
X11775000Y-26000000D02*
X16025000Y-26000000D01*
X2000000Y-17000000D02*
X6425000Y-17000000D01*
X3000000Y-12300000D02*
X2725000Y-12575000D01*
X7320000Y-4305000D02*
X3000000Y-8625000D01*
X59523223Y-18451777D02*
X58496446Y-17425000D01*
X10050000Y-21000000D02*
X10050000Y-22100000D01*
X11400000Y-22925000D02*
X11400000Y-23675000D01*
X22075000Y-27550000D02*
X22675000Y-26950000D01*
X2725000Y-13950000D02*
X1800000Y-14875000D01*
X3000000Y-8625000D02*
X3000000Y-12300000D01*
X16025000Y-26000000D02*
X17525000Y-27500000D01*
X40200000Y-25400000D02*
X40925000Y-25400000D01*
X11075000Y-22600000D02*
X11400000Y-22925000D01*
X2725000Y-12575000D02*
X2725000Y-13950000D01*
X17525000Y-31400000D02*
X18225000Y-32100000D01*
X40975000Y-25450000D02*
X40925000Y-25400000D01*
X41361535Y-25638596D02*
X41163596Y-25638596D01*
X12475000Y-16250000D02*
X12475000Y-6300000D01*
X41163596Y-25638596D02*
X40975000Y-25450000D01*
X10800000Y-25025000D02*
X10800000Y-24275000D01*
%TO.N,/LEFT_RESET*%
X7067500Y-4032500D02*
X10632500Y-4032500D01*
X12775000Y-6175000D02*
X12775000Y-16025000D01*
X15825000Y-26325000D02*
X11650000Y-26325000D01*
X2525000Y-8575000D02*
X7067500Y-4032500D01*
X1875000Y-17250000D02*
X1300000Y-16675000D01*
X22350000Y-31200000D02*
X21200000Y-32350000D01*
X40748433Y-25948433D02*
X40101567Y-25948433D01*
X6200000Y-17250000D02*
X1875000Y-17250000D01*
X2525000Y-12050000D02*
X2525000Y-8575000D01*
X17250000Y-31550000D02*
X17250000Y-27750000D01*
X22800000Y-27325000D02*
X22350000Y-27775000D01*
X7475000Y-18525000D02*
X6200000Y-17250000D01*
X17250000Y-27750000D02*
X15825000Y-26325000D01*
X9625000Y-22270674D02*
X9625000Y-21100000D01*
X12775000Y-16025000D02*
X13850000Y-17100000D01*
X40101567Y-25948433D02*
X38725000Y-27325000D01*
X38725000Y-27325000D02*
X22800000Y-27325000D01*
X10350000Y-25025000D02*
X10350000Y-22995674D01*
X9625000Y-21100000D02*
X7475000Y-18950000D01*
X22350000Y-27775000D02*
X22350000Y-31200000D01*
X10350000Y-22995674D02*
X9625000Y-22270674D01*
X7475000Y-18950000D02*
X7475000Y-18525000D01*
X58525000Y-17100000D02*
X59950000Y-18525000D01*
X1300000Y-16675000D02*
X1300000Y-13275000D01*
X18050000Y-32350000D02*
X17250000Y-31550000D01*
X21200000Y-32350000D02*
X18050000Y-32350000D01*
X1300000Y-13275000D02*
X2525000Y-12050000D01*
X13850000Y-17100000D02*
X58525000Y-17100000D01*
X11650000Y-26325000D02*
X10350000Y-25025000D01*
X10632500Y-4032500D02*
X12775000Y-6175000D01*
D15*
%TO.N,/RIGHT_ATT_INT*%
X22377061Y-20372939D02*
X21770000Y-20980000D01*
X22377061Y-20347939D02*
X22377061Y-20372939D01*
X21770000Y-20980000D02*
X21770000Y-22269500D01*
X21770000Y-22269500D02*
X21775500Y-22275000D01*
%TD*%
M02*
