%TF.GenerationSoftware,KiCad,Pcbnew,(6.0.7)*%
%TF.CreationDate,2022-09-26T14:07:28+03:00*%
%TF.ProjectId,202-combi-v0.2,3230322d-636f-46d6-9269-2d76302e322e,rev?*%
%TF.SameCoordinates,PX328b740PY3479d68*%
%TF.FileFunction,Paste,Top*%
%TF.FilePolarity,Positive*%
%FSLAX46Y46*%
G04 Gerber Fmt 4.6, Leading zero omitted, Abs format (unit mm)*
G04 Created by KiCad (PCBNEW (6.0.7)) date 2022-09-26 14:07:28*
%MOMM*%
%LPD*%
G01*
G04 APERTURE LIST*
G04 Aperture macros list*
%AMRoundRect*
0 Rectangle with rounded corners*
0 $1 Rounding radius*
0 $2 $3 $4 $5 $6 $7 $8 $9 X,Y pos of 4 corners*
0 Add a 4 corners polygon primitive as box body*
4,1,4,$2,$3,$4,$5,$6,$7,$8,$9,$2,$3,0*
0 Add four circle primitives for the rounded corners*
1,1,$1+$1,$2,$3*
1,1,$1+$1,$4,$5*
1,1,$1+$1,$6,$7*
1,1,$1+$1,$8,$9*
0 Add four rect primitives between the rounded corners*
20,1,$1+$1,$2,$3,$4,$5,0*
20,1,$1+$1,$4,$5,$6,$7,0*
20,1,$1+$1,$6,$7,$8,$9,0*
20,1,$1+$1,$8,$9,$2,$3,0*%
G04 Aperture macros list end*
%ADD10C,0.010000*%
%ADD11C,0.100000*%
%ADD12R,0.711200X2.006600*%
%ADD13R,2.692400X1.397000*%
%ADD14R,0.990600X2.590800*%
%ADD15R,1.193800X1.193800*%
%ADD16R,1.498600X2.590800*%
%ADD17R,1.955432X0.420766*%
%ADD18RoundRect,0.135000X0.185000X-0.135000X0.185000X0.135000X-0.185000X0.135000X-0.185000X-0.135000X0*%
%ADD19RoundRect,0.140000X-0.140000X-0.170000X0.140000X-0.170000X0.140000X0.170000X-0.140000X0.170000X0*%
%ADD20RoundRect,0.135000X-0.185000X0.135000X-0.185000X-0.135000X0.185000X-0.135000X0.185000X0.135000X0*%
%ADD21R,0.200000X0.600000*%
%ADD22R,1.200000X0.400000*%
%ADD23RoundRect,0.140000X0.170000X-0.140000X0.170000X0.140000X-0.170000X0.140000X-0.170000X-0.140000X0*%
%ADD24R,0.200000X0.549999*%
%ADD25R,0.549999X0.200000*%
G04 APERTURE END LIST*
%TO.C,P4*%
G36*
X8735394Y-22264155D02*
G01*
X8175394Y-22264155D01*
X8175394Y-22104155D01*
X8735394Y-22104155D01*
X8735394Y-22264155D01*
G37*
D10*
X8735394Y-22264155D02*
X8175394Y-22264155D01*
X8175394Y-22104155D01*
X8735394Y-22104155D01*
X8735394Y-22264155D01*
G36*
X11815394Y-26664155D02*
G01*
X11255394Y-26664155D01*
X11255394Y-26504155D01*
X11815394Y-26504155D01*
X11815394Y-26664155D01*
G37*
X11815394Y-26664155D02*
X11255394Y-26664155D01*
X11255394Y-26504155D01*
X11815394Y-26504155D01*
X11815394Y-26664155D01*
G36*
X8735394Y-22664155D02*
G01*
X8175394Y-22664155D01*
X8175394Y-22504155D01*
X8735394Y-22504155D01*
X8735394Y-22664155D01*
G37*
X8735394Y-22664155D02*
X8175394Y-22664155D01*
X8175394Y-22504155D01*
X8735394Y-22504155D01*
X8735394Y-22664155D01*
G36*
X8735394Y-21864155D02*
G01*
X8175394Y-21864155D01*
X8175394Y-21704155D01*
X8735394Y-21704155D01*
X8735394Y-21864155D01*
G37*
X8735394Y-21864155D02*
X8175394Y-21864155D01*
X8175394Y-21704155D01*
X8735394Y-21704155D01*
X8735394Y-21864155D01*
G36*
X11815394Y-22664155D02*
G01*
X11255394Y-22664155D01*
X11255394Y-22504155D01*
X11815394Y-22504155D01*
X11815394Y-22664155D01*
G37*
X11815394Y-22664155D02*
X11255394Y-22664155D01*
X11255394Y-22504155D01*
X11815394Y-22504155D01*
X11815394Y-22664155D01*
G36*
X11815394Y-24664155D02*
G01*
X11255394Y-24664155D01*
X11255394Y-24504155D01*
X11815394Y-24504155D01*
X11815394Y-24664155D01*
G37*
X11815394Y-24664155D02*
X11255394Y-24664155D01*
X11255394Y-24504155D01*
X11815394Y-24504155D01*
X11815394Y-24664155D01*
G36*
X11815394Y-22264155D02*
G01*
X11255394Y-22264155D01*
X11255394Y-22104155D01*
X11815394Y-22104155D01*
X11815394Y-22264155D01*
G37*
X11815394Y-22264155D02*
X11255394Y-22264155D01*
X11255394Y-22104155D01*
X11815394Y-22104155D01*
X11815394Y-22264155D01*
G36*
X8735394Y-26664155D02*
G01*
X8175394Y-26664155D01*
X8175394Y-26504155D01*
X8735394Y-26504155D01*
X8735394Y-26664155D01*
G37*
X8735394Y-26664155D02*
X8175394Y-26664155D01*
X8175394Y-26504155D01*
X8735394Y-26504155D01*
X8735394Y-26664155D01*
G36*
X8735394Y-27864155D02*
G01*
X8175394Y-27864155D01*
X8175394Y-27704155D01*
X8735394Y-27704155D01*
X8735394Y-27864155D01*
G37*
X8735394Y-27864155D02*
X8175394Y-27864155D01*
X8175394Y-27704155D01*
X8735394Y-27704155D01*
X8735394Y-27864155D01*
G36*
X11815394Y-27064155D02*
G01*
X11255394Y-27064155D01*
X11255394Y-26904155D01*
X11815394Y-26904155D01*
X11815394Y-27064155D01*
G37*
X11815394Y-27064155D02*
X11255394Y-27064155D01*
X11255394Y-26904155D01*
X11815394Y-26904155D01*
X11815394Y-27064155D01*
G36*
X8735394Y-28264155D02*
G01*
X8175394Y-28264155D01*
X8175394Y-28104155D01*
X8735394Y-28104155D01*
X8735394Y-28264155D01*
G37*
X8735394Y-28264155D02*
X8175394Y-28264155D01*
X8175394Y-28104155D01*
X8735394Y-28104155D01*
X8735394Y-28264155D01*
G36*
X11815394Y-25464155D02*
G01*
X11255394Y-25464155D01*
X11255394Y-25304155D01*
X11815394Y-25304155D01*
X11815394Y-25464155D01*
G37*
X11815394Y-25464155D02*
X11255394Y-25464155D01*
X11255394Y-25304155D01*
X11815394Y-25304155D01*
X11815394Y-25464155D01*
G36*
X11815394Y-26264155D02*
G01*
X11255394Y-26264155D01*
X11255394Y-26104155D01*
X11815394Y-26104155D01*
X11815394Y-26264155D01*
G37*
X11815394Y-26264155D02*
X11255394Y-26264155D01*
X11255394Y-26104155D01*
X11815394Y-26104155D01*
X11815394Y-26264155D01*
G36*
X11815394Y-24264155D02*
G01*
X11255394Y-24264155D01*
X11255394Y-24104155D01*
X11815394Y-24104155D01*
X11815394Y-24264155D01*
G37*
X11815394Y-24264155D02*
X11255394Y-24264155D01*
X11255394Y-24104155D01*
X11815394Y-24104155D01*
X11815394Y-24264155D01*
G36*
X8735394Y-23864155D02*
G01*
X8175394Y-23864155D01*
X8175394Y-23704155D01*
X8735394Y-23704155D01*
X8735394Y-23864155D01*
G37*
X8735394Y-23864155D02*
X8175394Y-23864155D01*
X8175394Y-23704155D01*
X8735394Y-23704155D01*
X8735394Y-23864155D01*
G36*
X11815394Y-27864155D02*
G01*
X11255394Y-27864155D01*
X11255394Y-27704155D01*
X11815394Y-27704155D01*
X11815394Y-27864155D01*
G37*
X11815394Y-27864155D02*
X11255394Y-27864155D01*
X11255394Y-27704155D01*
X11815394Y-27704155D01*
X11815394Y-27864155D01*
G36*
X8735394Y-24264155D02*
G01*
X8175394Y-24264155D01*
X8175394Y-24104155D01*
X8735394Y-24104155D01*
X8735394Y-24264155D01*
G37*
X8735394Y-24264155D02*
X8175394Y-24264155D01*
X8175394Y-24104155D01*
X8735394Y-24104155D01*
X8735394Y-24264155D01*
G36*
X8735394Y-27064155D02*
G01*
X8175394Y-27064155D01*
X8175394Y-26904155D01*
X8735394Y-26904155D01*
X8735394Y-27064155D01*
G37*
X8735394Y-27064155D02*
X8175394Y-27064155D01*
X8175394Y-26904155D01*
X8735394Y-26904155D01*
X8735394Y-27064155D01*
G36*
X8735394Y-24664155D02*
G01*
X8175394Y-24664155D01*
X8175394Y-24504155D01*
X8735394Y-24504155D01*
X8735394Y-24664155D01*
G37*
X8735394Y-24664155D02*
X8175394Y-24664155D01*
X8175394Y-24504155D01*
X8735394Y-24504155D01*
X8735394Y-24664155D01*
G36*
X8735394Y-25864155D02*
G01*
X8175394Y-25864155D01*
X8175394Y-25704155D01*
X8735394Y-25704155D01*
X8735394Y-25864155D01*
G37*
X8735394Y-25864155D02*
X8175394Y-25864155D01*
X8175394Y-25704155D01*
X8735394Y-25704155D01*
X8735394Y-25864155D01*
G36*
X11815394Y-23864155D02*
G01*
X11255394Y-23864155D01*
X11255394Y-23704155D01*
X11815394Y-23704155D01*
X11815394Y-23864155D01*
G37*
X11815394Y-23864155D02*
X11255394Y-23864155D01*
X11255394Y-23704155D01*
X11815394Y-23704155D01*
X11815394Y-23864155D01*
G36*
X8735394Y-25064155D02*
G01*
X8175394Y-25064155D01*
X8175394Y-24904155D01*
X8735394Y-24904155D01*
X8735394Y-25064155D01*
G37*
X8735394Y-25064155D02*
X8175394Y-25064155D01*
X8175394Y-24904155D01*
X8735394Y-24904155D01*
X8735394Y-25064155D01*
G36*
X11815394Y-21864155D02*
G01*
X11255394Y-21864155D01*
X11255394Y-21704155D01*
X11815394Y-21704155D01*
X11815394Y-21864155D01*
G37*
X11815394Y-21864155D02*
X11255394Y-21864155D01*
X11255394Y-21704155D01*
X11815394Y-21704155D01*
X11815394Y-21864155D01*
G36*
X11815394Y-23464155D02*
G01*
X11255394Y-23464155D01*
X11255394Y-23304155D01*
X11815394Y-23304155D01*
X11815394Y-23464155D01*
G37*
X11815394Y-23464155D02*
X11255394Y-23464155D01*
X11255394Y-23304155D01*
X11815394Y-23304155D01*
X11815394Y-23464155D01*
G36*
X11815394Y-23064155D02*
G01*
X11255394Y-23064155D01*
X11255394Y-22904155D01*
X11815394Y-22904155D01*
X11815394Y-23064155D01*
G37*
X11815394Y-23064155D02*
X11255394Y-23064155D01*
X11255394Y-22904155D01*
X11815394Y-22904155D01*
X11815394Y-23064155D01*
G36*
X8735394Y-25464155D02*
G01*
X8175394Y-25464155D01*
X8175394Y-25304155D01*
X8735394Y-25304155D01*
X8735394Y-25464155D01*
G37*
X8735394Y-25464155D02*
X8175394Y-25464155D01*
X8175394Y-25304155D01*
X8735394Y-25304155D01*
X8735394Y-25464155D01*
G36*
X8735394Y-23464155D02*
G01*
X8175394Y-23464155D01*
X8175394Y-23304155D01*
X8735394Y-23304155D01*
X8735394Y-23464155D01*
G37*
X8735394Y-23464155D02*
X8175394Y-23464155D01*
X8175394Y-23304155D01*
X8735394Y-23304155D01*
X8735394Y-23464155D01*
G36*
X8735394Y-27464155D02*
G01*
X8175394Y-27464155D01*
X8175394Y-27304155D01*
X8735394Y-27304155D01*
X8735394Y-27464155D01*
G37*
X8735394Y-27464155D02*
X8175394Y-27464155D01*
X8175394Y-27304155D01*
X8735394Y-27304155D01*
X8735394Y-27464155D01*
G36*
X8735394Y-26264155D02*
G01*
X8175394Y-26264155D01*
X8175394Y-26104155D01*
X8735394Y-26104155D01*
X8735394Y-26264155D01*
G37*
X8735394Y-26264155D02*
X8175394Y-26264155D01*
X8175394Y-26104155D01*
X8735394Y-26104155D01*
X8735394Y-26264155D01*
G36*
X11815394Y-25064155D02*
G01*
X11255394Y-25064155D01*
X11255394Y-24904155D01*
X11815394Y-24904155D01*
X11815394Y-25064155D01*
G37*
X11815394Y-25064155D02*
X11255394Y-25064155D01*
X11255394Y-24904155D01*
X11815394Y-24904155D01*
X11815394Y-25064155D01*
G36*
X8735394Y-23064155D02*
G01*
X8175394Y-23064155D01*
X8175394Y-22904155D01*
X8735394Y-22904155D01*
X8735394Y-23064155D01*
G37*
X8735394Y-23064155D02*
X8175394Y-23064155D01*
X8175394Y-22904155D01*
X8735394Y-22904155D01*
X8735394Y-23064155D01*
G36*
X11815394Y-28264155D02*
G01*
X11255394Y-28264155D01*
X11255394Y-28104155D01*
X11815394Y-28104155D01*
X11815394Y-28264155D01*
G37*
X11815394Y-28264155D02*
X11255394Y-28264155D01*
X11255394Y-28104155D01*
X11815394Y-28104155D01*
X11815394Y-28264155D01*
G36*
X11815394Y-27464155D02*
G01*
X11255394Y-27464155D01*
X11255394Y-27304155D01*
X11815394Y-27304155D01*
X11815394Y-27464155D01*
G37*
X11815394Y-27464155D02*
X11255394Y-27464155D01*
X11255394Y-27304155D01*
X11815394Y-27304155D01*
X11815394Y-27464155D01*
G36*
X11815394Y-25864155D02*
G01*
X11255394Y-25864155D01*
X11255394Y-25704155D01*
X11815394Y-25704155D01*
X11815394Y-25864155D01*
G37*
X11815394Y-25864155D02*
X11255394Y-25864155D01*
X11255394Y-25704155D01*
X11815394Y-25704155D01*
X11815394Y-25864155D01*
%TO.C,U4*%
G36*
X44135399Y-25050945D02*
G01*
X44144629Y-25053744D01*
X44153133Y-25058290D01*
X44160591Y-25064409D01*
X44166710Y-25071867D01*
X44171256Y-25080371D01*
X44174055Y-25089601D01*
X44175000Y-25099200D01*
X44175000Y-26230800D01*
X44174055Y-26240399D01*
X44171256Y-26249629D01*
X44166710Y-26258133D01*
X44160591Y-26265590D01*
X44153133Y-26271709D01*
X44144629Y-26276256D01*
X44135399Y-26279055D01*
X44125800Y-26280000D01*
X42994200Y-26280000D01*
X42984601Y-26279055D01*
X42975371Y-26276256D01*
X42966867Y-26271709D01*
X42959410Y-26265590D01*
X42953291Y-26258133D01*
X42948744Y-26249629D01*
X42945945Y-26240399D01*
X42945000Y-26230800D01*
X42945000Y-25099200D01*
X42945945Y-25089601D01*
X42948744Y-25080371D01*
X42953291Y-25071867D01*
X42959410Y-25064409D01*
X42966867Y-25058290D01*
X42975371Y-25053744D01*
X42984601Y-25050945D01*
X42994200Y-25050000D01*
X44125800Y-25050000D01*
X44135399Y-25050945D01*
G37*
D11*
X44135399Y-25050945D02*
X44144629Y-25053744D01*
X44153133Y-25058290D01*
X44160591Y-25064409D01*
X44166710Y-25071867D01*
X44171256Y-25080371D01*
X44174055Y-25089601D01*
X44175000Y-25099200D01*
X44175000Y-26230800D01*
X44174055Y-26240399D01*
X44171256Y-26249629D01*
X44166710Y-26258133D01*
X44160591Y-26265590D01*
X44153133Y-26271709D01*
X44144629Y-26276256D01*
X44135399Y-26279055D01*
X44125800Y-26280000D01*
X42994200Y-26280000D01*
X42984601Y-26279055D01*
X42975371Y-26276256D01*
X42966867Y-26271709D01*
X42959410Y-26265590D01*
X42953291Y-26258133D01*
X42948744Y-26249629D01*
X42945945Y-26240399D01*
X42945000Y-26230800D01*
X42945000Y-25099200D01*
X42945945Y-25089601D01*
X42948744Y-25080371D01*
X42953291Y-25071867D01*
X42959410Y-25064409D01*
X42966867Y-25058290D01*
X42975371Y-25053744D01*
X42984601Y-25050945D01*
X42994200Y-25050000D01*
X44125800Y-25050000D01*
X44135399Y-25050945D01*
G36*
X45565399Y-25050945D02*
G01*
X45574629Y-25053744D01*
X45583133Y-25058290D01*
X45590590Y-25064409D01*
X45596709Y-25071867D01*
X45601256Y-25080371D01*
X45604055Y-25089601D01*
X45605000Y-25099200D01*
X45605000Y-26230800D01*
X45604055Y-26240399D01*
X45601256Y-26249629D01*
X45596709Y-26258133D01*
X45590590Y-26265590D01*
X45583133Y-26271709D01*
X45574629Y-26276256D01*
X45565399Y-26279055D01*
X45555800Y-26280000D01*
X44424200Y-26280000D01*
X44414601Y-26279055D01*
X44405371Y-26276256D01*
X44396867Y-26271709D01*
X44389409Y-26265590D01*
X44383290Y-26258133D01*
X44378744Y-26249629D01*
X44375945Y-26240399D01*
X44375000Y-26230800D01*
X44375000Y-25099200D01*
X44375945Y-25089601D01*
X44378744Y-25080371D01*
X44383290Y-25071867D01*
X44389409Y-25064409D01*
X44396867Y-25058290D01*
X44405371Y-25053744D01*
X44414601Y-25050945D01*
X44424200Y-25050000D01*
X45555800Y-25050000D01*
X45565399Y-25050945D01*
G37*
X45565399Y-25050945D02*
X45574629Y-25053744D01*
X45583133Y-25058290D01*
X45590590Y-25064409D01*
X45596709Y-25071867D01*
X45601256Y-25080371D01*
X45604055Y-25089601D01*
X45605000Y-25099200D01*
X45605000Y-26230800D01*
X45604055Y-26240399D01*
X45601256Y-26249629D01*
X45596709Y-26258133D01*
X45590590Y-26265590D01*
X45583133Y-26271709D01*
X45574629Y-26276256D01*
X45565399Y-26279055D01*
X45555800Y-26280000D01*
X44424200Y-26280000D01*
X44414601Y-26279055D01*
X44405371Y-26276256D01*
X44396867Y-26271709D01*
X44389409Y-26265590D01*
X44383290Y-26258133D01*
X44378744Y-26249629D01*
X44375945Y-26240399D01*
X44375000Y-26230800D01*
X44375000Y-25099200D01*
X44375945Y-25089601D01*
X44378744Y-25080371D01*
X44383290Y-25071867D01*
X44389409Y-25064409D01*
X44396867Y-25058290D01*
X44405371Y-25053744D01*
X44414601Y-25050945D01*
X44424200Y-25050000D01*
X45555800Y-25050000D01*
X45565399Y-25050945D01*
G36*
X44135399Y-23620945D02*
G01*
X44144629Y-23623744D01*
X44153133Y-23628291D01*
X44160591Y-23634410D01*
X44166710Y-23641867D01*
X44171256Y-23650371D01*
X44174055Y-23659601D01*
X44175000Y-23669200D01*
X44175000Y-24800800D01*
X44174055Y-24810399D01*
X44171256Y-24819629D01*
X44166710Y-24828133D01*
X44160591Y-24835591D01*
X44153133Y-24841710D01*
X44144629Y-24846256D01*
X44135399Y-24849055D01*
X44125800Y-24850000D01*
X42994200Y-24850000D01*
X42984601Y-24849055D01*
X42975371Y-24846256D01*
X42966867Y-24841710D01*
X42959410Y-24835591D01*
X42953291Y-24828133D01*
X42948744Y-24819629D01*
X42945945Y-24810399D01*
X42945000Y-24800800D01*
X42945000Y-23669200D01*
X42945945Y-23659601D01*
X42948744Y-23650371D01*
X42953291Y-23641867D01*
X42959410Y-23634410D01*
X42966867Y-23628291D01*
X42975371Y-23623744D01*
X42984601Y-23620945D01*
X42994200Y-23620000D01*
X44125800Y-23620000D01*
X44135399Y-23620945D01*
G37*
X44135399Y-23620945D02*
X44144629Y-23623744D01*
X44153133Y-23628291D01*
X44160591Y-23634410D01*
X44166710Y-23641867D01*
X44171256Y-23650371D01*
X44174055Y-23659601D01*
X44175000Y-23669200D01*
X44175000Y-24800800D01*
X44174055Y-24810399D01*
X44171256Y-24819629D01*
X44166710Y-24828133D01*
X44160591Y-24835591D01*
X44153133Y-24841710D01*
X44144629Y-24846256D01*
X44135399Y-24849055D01*
X44125800Y-24850000D01*
X42994200Y-24850000D01*
X42984601Y-24849055D01*
X42975371Y-24846256D01*
X42966867Y-24841710D01*
X42959410Y-24835591D01*
X42953291Y-24828133D01*
X42948744Y-24819629D01*
X42945945Y-24810399D01*
X42945000Y-24800800D01*
X42945000Y-23669200D01*
X42945945Y-23659601D01*
X42948744Y-23650371D01*
X42953291Y-23641867D01*
X42959410Y-23634410D01*
X42966867Y-23628291D01*
X42975371Y-23623744D01*
X42984601Y-23620945D01*
X42994200Y-23620000D01*
X44125800Y-23620000D01*
X44135399Y-23620945D01*
G36*
X45565399Y-23620945D02*
G01*
X45574629Y-23623744D01*
X45583133Y-23628291D01*
X45590590Y-23634410D01*
X45596709Y-23641867D01*
X45601256Y-23650371D01*
X45604055Y-23659601D01*
X45605000Y-23669200D01*
X45605000Y-24800800D01*
X45604055Y-24810399D01*
X45601256Y-24819629D01*
X45596709Y-24828133D01*
X45590590Y-24835591D01*
X45583133Y-24841710D01*
X45574629Y-24846256D01*
X45565399Y-24849055D01*
X45555800Y-24850000D01*
X44424200Y-24850000D01*
X44414601Y-24849055D01*
X44405371Y-24846256D01*
X44396867Y-24841710D01*
X44389409Y-24835591D01*
X44383290Y-24828133D01*
X44378744Y-24819629D01*
X44375945Y-24810399D01*
X44375000Y-24800800D01*
X44375000Y-23669200D01*
X44375945Y-23659601D01*
X44378744Y-23650371D01*
X44383290Y-23641867D01*
X44389409Y-23634410D01*
X44396867Y-23628291D01*
X44405371Y-23623744D01*
X44414601Y-23620945D01*
X44424200Y-23620000D01*
X45555800Y-23620000D01*
X45565399Y-23620945D01*
G37*
X45565399Y-23620945D02*
X45574629Y-23623744D01*
X45583133Y-23628291D01*
X45590590Y-23634410D01*
X45596709Y-23641867D01*
X45601256Y-23650371D01*
X45604055Y-23659601D01*
X45605000Y-23669200D01*
X45605000Y-24800800D01*
X45604055Y-24810399D01*
X45601256Y-24819629D01*
X45596709Y-24828133D01*
X45590590Y-24835591D01*
X45583133Y-24841710D01*
X45574629Y-24846256D01*
X45565399Y-24849055D01*
X45555800Y-24850000D01*
X44424200Y-24850000D01*
X44414601Y-24849055D01*
X44405371Y-24846256D01*
X44396867Y-24841710D01*
X44389409Y-24835591D01*
X44383290Y-24828133D01*
X44378744Y-24819629D01*
X44375945Y-24810399D01*
X44375000Y-24800800D01*
X44375000Y-23669200D01*
X44375945Y-23659601D01*
X44378744Y-23650371D01*
X44383290Y-23641867D01*
X44389409Y-23634410D01*
X44396867Y-23628291D01*
X44405371Y-23623744D01*
X44414601Y-23620945D01*
X44424200Y-23620000D01*
X45555800Y-23620000D01*
X45565399Y-23620945D01*
%TO.C,P3*%
G36*
X62824606Y-23445845D02*
G01*
X62264606Y-23445845D01*
X62264606Y-23285845D01*
X62824606Y-23285845D01*
X62824606Y-23445845D01*
G37*
D10*
X62824606Y-23445845D02*
X62264606Y-23445845D01*
X62264606Y-23285845D01*
X62824606Y-23285845D01*
X62824606Y-23445845D01*
G36*
X59744606Y-25445845D02*
G01*
X59184606Y-25445845D01*
X59184606Y-25285845D01*
X59744606Y-25285845D01*
X59744606Y-25445845D01*
G37*
X59744606Y-25445845D02*
X59184606Y-25445845D01*
X59184606Y-25285845D01*
X59744606Y-25285845D01*
X59744606Y-25445845D01*
G36*
X59744606Y-27845845D02*
G01*
X59184606Y-27845845D01*
X59184606Y-27685845D01*
X59744606Y-27685845D01*
X59744606Y-27845845D01*
G37*
X59744606Y-27845845D02*
X59184606Y-27845845D01*
X59184606Y-27685845D01*
X59744606Y-27685845D01*
X59744606Y-27845845D01*
G36*
X59744606Y-25045845D02*
G01*
X59184606Y-25045845D01*
X59184606Y-24885845D01*
X59744606Y-24885845D01*
X59744606Y-25045845D01*
G37*
X59744606Y-25045845D02*
X59184606Y-25045845D01*
X59184606Y-24885845D01*
X59744606Y-24885845D01*
X59744606Y-25045845D01*
G36*
X62824606Y-27845845D02*
G01*
X62264606Y-27845845D01*
X62264606Y-27685845D01*
X62824606Y-27685845D01*
X62824606Y-27845845D01*
G37*
X62824606Y-27845845D02*
X62264606Y-27845845D01*
X62264606Y-27685845D01*
X62824606Y-27685845D01*
X62824606Y-27845845D01*
G36*
X59744606Y-21845845D02*
G01*
X59184606Y-21845845D01*
X59184606Y-21685845D01*
X59744606Y-21685845D01*
X59744606Y-21845845D01*
G37*
X59744606Y-21845845D02*
X59184606Y-21845845D01*
X59184606Y-21685845D01*
X59744606Y-21685845D01*
X59744606Y-21845845D01*
G36*
X59744606Y-23045845D02*
G01*
X59184606Y-23045845D01*
X59184606Y-22885845D01*
X59744606Y-22885845D01*
X59744606Y-23045845D01*
G37*
X59744606Y-23045845D02*
X59184606Y-23045845D01*
X59184606Y-22885845D01*
X59744606Y-22885845D01*
X59744606Y-23045845D01*
G36*
X59744606Y-28245845D02*
G01*
X59184606Y-28245845D01*
X59184606Y-28085845D01*
X59744606Y-28085845D01*
X59744606Y-28245845D01*
G37*
X59744606Y-28245845D02*
X59184606Y-28245845D01*
X59184606Y-28085845D01*
X59744606Y-28085845D01*
X59744606Y-28245845D01*
G36*
X62824606Y-21845845D02*
G01*
X62264606Y-21845845D01*
X62264606Y-21685845D01*
X62824606Y-21685845D01*
X62824606Y-21845845D01*
G37*
X62824606Y-21845845D02*
X62264606Y-21845845D01*
X62264606Y-21685845D01*
X62824606Y-21685845D01*
X62824606Y-21845845D01*
G36*
X62824606Y-23045845D02*
G01*
X62264606Y-23045845D01*
X62264606Y-22885845D01*
X62824606Y-22885845D01*
X62824606Y-23045845D01*
G37*
X62824606Y-23045845D02*
X62264606Y-23045845D01*
X62264606Y-22885845D01*
X62824606Y-22885845D01*
X62824606Y-23045845D01*
G36*
X62824606Y-24245845D02*
G01*
X62264606Y-24245845D01*
X62264606Y-24085845D01*
X62824606Y-24085845D01*
X62824606Y-24245845D01*
G37*
X62824606Y-24245845D02*
X62264606Y-24245845D01*
X62264606Y-24085845D01*
X62824606Y-24085845D01*
X62824606Y-24245845D01*
G36*
X59744606Y-26245845D02*
G01*
X59184606Y-26245845D01*
X59184606Y-26085845D01*
X59744606Y-26085845D01*
X59744606Y-26245845D01*
G37*
X59744606Y-26245845D02*
X59184606Y-26245845D01*
X59184606Y-26085845D01*
X59744606Y-26085845D01*
X59744606Y-26245845D01*
G36*
X62824606Y-25445845D02*
G01*
X62264606Y-25445845D01*
X62264606Y-25285845D01*
X62824606Y-25285845D01*
X62824606Y-25445845D01*
G37*
X62824606Y-25445845D02*
X62264606Y-25445845D01*
X62264606Y-25285845D01*
X62824606Y-25285845D01*
X62824606Y-25445845D01*
G36*
X59744606Y-27045845D02*
G01*
X59184606Y-27045845D01*
X59184606Y-26885845D01*
X59744606Y-26885845D01*
X59744606Y-27045845D01*
G37*
X59744606Y-27045845D02*
X59184606Y-27045845D01*
X59184606Y-26885845D01*
X59744606Y-26885845D01*
X59744606Y-27045845D01*
G36*
X59744606Y-25845845D02*
G01*
X59184606Y-25845845D01*
X59184606Y-25685845D01*
X59744606Y-25685845D01*
X59744606Y-25845845D01*
G37*
X59744606Y-25845845D02*
X59184606Y-25845845D01*
X59184606Y-25685845D01*
X59744606Y-25685845D01*
X59744606Y-25845845D01*
G36*
X59744606Y-24245845D02*
G01*
X59184606Y-24245845D01*
X59184606Y-24085845D01*
X59744606Y-24085845D01*
X59744606Y-24245845D01*
G37*
X59744606Y-24245845D02*
X59184606Y-24245845D01*
X59184606Y-24085845D01*
X59744606Y-24085845D01*
X59744606Y-24245845D01*
G36*
X59744606Y-27445845D02*
G01*
X59184606Y-27445845D01*
X59184606Y-27285845D01*
X59744606Y-27285845D01*
X59744606Y-27445845D01*
G37*
X59744606Y-27445845D02*
X59184606Y-27445845D01*
X59184606Y-27285845D01*
X59744606Y-27285845D01*
X59744606Y-27445845D01*
G36*
X59744606Y-26645845D02*
G01*
X59184606Y-26645845D01*
X59184606Y-26485845D01*
X59744606Y-26485845D01*
X59744606Y-26645845D01*
G37*
X59744606Y-26645845D02*
X59184606Y-26645845D01*
X59184606Y-26485845D01*
X59744606Y-26485845D01*
X59744606Y-26645845D01*
G36*
X62824606Y-22645845D02*
G01*
X62264606Y-22645845D01*
X62264606Y-22485845D01*
X62824606Y-22485845D01*
X62824606Y-22645845D01*
G37*
X62824606Y-22645845D02*
X62264606Y-22645845D01*
X62264606Y-22485845D01*
X62824606Y-22485845D01*
X62824606Y-22645845D01*
G36*
X62824606Y-27445845D02*
G01*
X62264606Y-27445845D01*
X62264606Y-27285845D01*
X62824606Y-27285845D01*
X62824606Y-27445845D01*
G37*
X62824606Y-27445845D02*
X62264606Y-27445845D01*
X62264606Y-27285845D01*
X62824606Y-27285845D01*
X62824606Y-27445845D01*
G36*
X62824606Y-26245845D02*
G01*
X62264606Y-26245845D01*
X62264606Y-26085845D01*
X62824606Y-26085845D01*
X62824606Y-26245845D01*
G37*
X62824606Y-26245845D02*
X62264606Y-26245845D01*
X62264606Y-26085845D01*
X62824606Y-26085845D01*
X62824606Y-26245845D01*
G36*
X59744606Y-23845845D02*
G01*
X59184606Y-23845845D01*
X59184606Y-23685845D01*
X59744606Y-23685845D01*
X59744606Y-23845845D01*
G37*
X59744606Y-23845845D02*
X59184606Y-23845845D01*
X59184606Y-23685845D01*
X59744606Y-23685845D01*
X59744606Y-23845845D01*
G36*
X62824606Y-25845845D02*
G01*
X62264606Y-25845845D01*
X62264606Y-25685845D01*
X62824606Y-25685845D01*
X62824606Y-25845845D01*
G37*
X62824606Y-25845845D02*
X62264606Y-25845845D01*
X62264606Y-25685845D01*
X62824606Y-25685845D01*
X62824606Y-25845845D01*
G36*
X59744606Y-23445845D02*
G01*
X59184606Y-23445845D01*
X59184606Y-23285845D01*
X59744606Y-23285845D01*
X59744606Y-23445845D01*
G37*
X59744606Y-23445845D02*
X59184606Y-23445845D01*
X59184606Y-23285845D01*
X59744606Y-23285845D01*
X59744606Y-23445845D01*
G36*
X62824606Y-23845845D02*
G01*
X62264606Y-23845845D01*
X62264606Y-23685845D01*
X62824606Y-23685845D01*
X62824606Y-23845845D01*
G37*
X62824606Y-23845845D02*
X62264606Y-23845845D01*
X62264606Y-23685845D01*
X62824606Y-23685845D01*
X62824606Y-23845845D01*
G36*
X62824606Y-28245845D02*
G01*
X62264606Y-28245845D01*
X62264606Y-28085845D01*
X62824606Y-28085845D01*
X62824606Y-28245845D01*
G37*
X62824606Y-28245845D02*
X62264606Y-28245845D01*
X62264606Y-28085845D01*
X62824606Y-28085845D01*
X62824606Y-28245845D01*
G36*
X59744606Y-22645845D02*
G01*
X59184606Y-22645845D01*
X59184606Y-22485845D01*
X59744606Y-22485845D01*
X59744606Y-22645845D01*
G37*
X59744606Y-22645845D02*
X59184606Y-22645845D01*
X59184606Y-22485845D01*
X59744606Y-22485845D01*
X59744606Y-22645845D01*
G36*
X59744606Y-24645845D02*
G01*
X59184606Y-24645845D01*
X59184606Y-24485845D01*
X59744606Y-24485845D01*
X59744606Y-24645845D01*
G37*
X59744606Y-24645845D02*
X59184606Y-24645845D01*
X59184606Y-24485845D01*
X59744606Y-24485845D01*
X59744606Y-24645845D01*
G36*
X62824606Y-22245845D02*
G01*
X62264606Y-22245845D01*
X62264606Y-22085845D01*
X62824606Y-22085845D01*
X62824606Y-22245845D01*
G37*
X62824606Y-22245845D02*
X62264606Y-22245845D01*
X62264606Y-22085845D01*
X62824606Y-22085845D01*
X62824606Y-22245845D01*
G36*
X62824606Y-26645845D02*
G01*
X62264606Y-26645845D01*
X62264606Y-26485845D01*
X62824606Y-26485845D01*
X62824606Y-26645845D01*
G37*
X62824606Y-26645845D02*
X62264606Y-26645845D01*
X62264606Y-26485845D01*
X62824606Y-26485845D01*
X62824606Y-26645845D01*
G36*
X62824606Y-27045845D02*
G01*
X62264606Y-27045845D01*
X62264606Y-26885845D01*
X62824606Y-26885845D01*
X62824606Y-27045845D01*
G37*
X62824606Y-27045845D02*
X62264606Y-27045845D01*
X62264606Y-26885845D01*
X62824606Y-26885845D01*
X62824606Y-27045845D01*
G36*
X62824606Y-25045845D02*
G01*
X62264606Y-25045845D01*
X62264606Y-24885845D01*
X62824606Y-24885845D01*
X62824606Y-25045845D01*
G37*
X62824606Y-25045845D02*
X62264606Y-25045845D01*
X62264606Y-24885845D01*
X62824606Y-24885845D01*
X62824606Y-25045845D01*
G36*
X59744606Y-22245845D02*
G01*
X59184606Y-22245845D01*
X59184606Y-22085845D01*
X59744606Y-22085845D01*
X59744606Y-22245845D01*
G37*
X59744606Y-22245845D02*
X59184606Y-22245845D01*
X59184606Y-22085845D01*
X59744606Y-22085845D01*
X59744606Y-22245845D01*
G36*
X62824606Y-24645845D02*
G01*
X62264606Y-24645845D01*
X62264606Y-24485845D01*
X62824606Y-24485845D01*
X62824606Y-24645845D01*
G37*
X62824606Y-24645845D02*
X62264606Y-24645845D01*
X62264606Y-24485845D01*
X62824606Y-24485845D01*
X62824606Y-24645845D01*
%TD*%
D12*
%TO.C,J1*%
X11047999Y-14223351D03*
X9947999Y-14223351D03*
X8847998Y-14223351D03*
X7747998Y-14223351D03*
X6647998Y-14223351D03*
X5547997Y-14223351D03*
X4448000Y-14223351D03*
X3347999Y-14223351D03*
D13*
X9647999Y-1523351D03*
D14*
X1248001Y-13723350D03*
D13*
X4747999Y-1523351D03*
D15*
X12698001Y-1423349D03*
D16*
X14548000Y-13723349D03*
%TD*%
D17*
%TO.C,U5*%
X19049616Y-21612439D03*
X19049616Y-22262437D03*
X19049616Y-22912439D03*
X19049616Y-23562437D03*
X19049616Y-24212439D03*
X19049616Y-24862437D03*
X19049616Y-25512439D03*
X19049616Y-26162437D03*
X24800384Y-26162437D03*
X24800384Y-25512439D03*
X24800384Y-24862437D03*
X24800384Y-24212439D03*
X24800384Y-23562437D03*
X24800384Y-22912439D03*
X24800384Y-22262437D03*
X24800384Y-21612439D03*
%TD*%
D18*
%TO.C,R2*%
X21500000Y-30085000D03*
X21500000Y-29065000D03*
%TD*%
D19*
%TO.C,C17*%
X24095000Y-19925000D03*
X25055000Y-19925000D03*
%TD*%
D18*
%TO.C,R1*%
X19275000Y-30100000D03*
X19275000Y-29080000D03*
%TD*%
D20*
%TO.C,R4*%
X20450000Y-29080000D03*
X20450000Y-30100000D03*
%TD*%
D21*
%TO.C,D1*%
X11525000Y-17075000D03*
X10625000Y-17075000D03*
X9825000Y-17075000D03*
X9025000Y-17075000D03*
X8125000Y-17075000D03*
X8525000Y-18025000D03*
X9425000Y-18025000D03*
X10225000Y-18025000D03*
X11125000Y-18025000D03*
%TD*%
D22*
%TO.C,U2*%
X28075000Y-21800000D03*
X28075000Y-22450000D03*
X28075000Y-23100000D03*
X28075000Y-23750000D03*
X28075000Y-24400000D03*
X28075000Y-25050000D03*
X28075000Y-25700000D03*
X34975000Y-25700000D03*
X34975000Y-25050000D03*
X34975000Y-24400000D03*
X34975000Y-23750000D03*
X34975000Y-23100000D03*
X34975000Y-22450000D03*
X34975000Y-21800000D03*
%TD*%
D23*
%TO.C,C6*%
X26575000Y-20775000D03*
X26575000Y-19815000D03*
%TD*%
D24*
%TO.C,U4*%
X42874998Y-26875000D03*
X43274999Y-26875000D03*
X43674999Y-26875000D03*
X44074998Y-26875000D03*
X44475000Y-26875000D03*
X44874999Y-26875000D03*
X45274998Y-26875000D03*
X45675000Y-26875000D03*
D25*
X46200000Y-26350000D03*
X46200000Y-25949998D03*
X46200000Y-25549999D03*
X46200000Y-25150000D03*
X46200000Y-24749998D03*
X46200000Y-24349999D03*
X46200000Y-23949999D03*
X46200000Y-23549998D03*
D24*
X45675000Y-23025000D03*
X45274998Y-23025000D03*
X44874999Y-23025000D03*
X44475000Y-23025000D03*
X44074998Y-23025000D03*
X43674999Y-23025000D03*
X43274999Y-23025000D03*
X42874998Y-23025000D03*
D25*
X42350000Y-23549998D03*
X42350000Y-23949999D03*
X42350000Y-24349999D03*
X42350000Y-24749998D03*
X42350000Y-25150000D03*
X42350000Y-25549999D03*
X42350000Y-25949998D03*
X42350000Y-26350000D03*
%TD*%
D19*
%TO.C,C7*%
X36420000Y-20775000D03*
X37380000Y-20775000D03*
%TD*%
D20*
%TO.C,R3*%
X18100000Y-29080000D03*
X18100000Y-30100000D03*
%TD*%
M02*
