M48
; DRILL file {KiCad (6.0.7)} date Mon Sep 26 14:08:35 2022
; FORMAT={-:-/ absolute / metric / decimal}
; #@! TF.CreationDate,2022-09-26T14:08:35+03:00
; #@! TF.GenerationSoftware,Kicad,Pcbnew,(6.0.7)
; #@! TF.FileFunction,Plated,1,6,PTH
FMAT,2
METRIC
; #@! TA.AperFunction,Plated,PTH,ViaDrill
T1C0.200
; #@! TA.AperFunction,Plated,PTH,ViaDrill
T2C0.300
%
G90
G05
T1
X1.5Y-11.875
X2.025Y-13.725
X2.325Y-16.45
X2.45Y-15.725
X2.675Y-17.75
X3.05Y-1.525
X3.35Y-12.825
X4.075Y-17.725
X4.45Y-12.8
X4.75Y-2.65
X5.55Y-12.875
X5.55Y-15.575
X6.225Y-10.925
X6.55Y-1.525
X6.65Y-12.85
X7.725Y-27.425
X7.75Y-24.975
X7.775Y-26.175
X7.8Y-23.775
X8.575Y-20.75
X8.762Y-3.587
X8.85Y-4.75
X8.85Y-12.85
X9.0Y-10.875
X9.125Y-21.75
X9.25Y-23.5
X9.264Y-25.194
X9.264Y-25.974
X9.3Y-22.575
X9.54Y-27.594
X9.54Y-28.374
X9.75Y-23.994
X9.75Y-24.774
X9.825Y-16.375
X9.95Y-12.85
X10.175Y-26.75
X10.225Y-18.65
X10.275Y-29.225
X10.725Y-28.625
X10.825Y-21.8
X10.85Y-23.375
X11.05Y-12.825
X11.525Y-28.925
X11.75Y-1.425
X12.25Y-22.175
X12.35Y-22.975
X12.55Y-27.2
X12.7Y-2.425
X12.7Y-25.525
X13.275Y-26.975
X13.45Y-13.725
X13.55Y-25.275
X13.675Y-1.425
X14.525Y-12.025
X14.55Y-15.425
X15.325Y-20.025
X15.912Y-20.025
X16.525Y-20.025
X17.65Y-26.15
X18.125Y-30.825
X19.2Y-31.625
X20.425Y-22.95
X20.425Y-28.3
X20.475Y-30.875
X20.875Y-22.35
X21.025Y-20.64
X21.5Y-30.9
X21.775Y-22.275
X22.2Y-21.7
X22.377Y-20.348
X23.4Y-20.6
X23.475Y-19.95
X24.0Y-20.8
X24.8Y-20.825
X25.65Y-20.95
X25.9Y-19.8
X26.275Y-26.175
X29.15Y-26.2
X29.25Y-21.9
X29.875Y-20.225
X30.0Y-20.925
X30.125Y-21.85
X30.375Y-19.775
X33.35Y-22.825
X33.6Y-19.725
X33.85Y-21.825
X37.271Y-24.652
X37.4Y-20.175
X37.625Y-26.025
X37.8Y-21.45
X37.823Y-25.204
X38.4Y-20.075
X38.675Y-21.525
X39.05Y-25.425
X39.3Y-23.825
X39.375Y-19.975
X39.8Y-24.925
X40.225Y-23.775
X40.748Y-25.948
X40.85Y-23.625
X41.362Y-25.639
X41.675Y-26.52
X44.25Y-24.95
X44.475Y-27.525
X46.25Y-19.375
X46.55Y-27.081
X47.075Y-26.625
X47.148Y-24.802
X47.3Y-25.475
X47.375Y-19.475
X47.939Y-25.819
X48.175Y-20.925
X48.475Y-24.95
X48.805Y-21.385
X48.805Y-22.165
X48.9Y-26.225
X48.9Y-27.75
X48.912Y-25.425
X49.05Y-29.975
X50.45Y-22.375
X50.462Y-21.175
X50.5Y-23.575
X50.525Y-24.775
X50.55Y-30.75
X50.575Y-25.8
X51.562Y-28.225
X51.75Y-29.375
X51.8Y-20.2
X51.8Y-21.175
X51.8Y-26.0
X51.825Y-23.575
X51.85Y-22.35
X53.225Y-29.575
X53.275Y-19.825
X53.4Y-30.975
X53.55Y-26.625
X53.725Y-24.95
X54.275Y-18.575
X54.3Y-25.4
X54.825Y-25.925
X55.125Y-19.7
X55.8Y-19.325
X55.9Y-25.175
X56.125Y-26.15
X56.173Y-23.785
X56.173Y-24.565
X56.814Y-25.508
X56.925Y-24.775
X57.47Y-25.57
X58.474Y-25.25
X58.475Y-22.1
X58.625Y-26.575
X58.7Y-21.475
X58.75Y-27.775
X59.1Y-31.225
X59.764Y-31.216
X59.9Y-28.825
X60.025Y-18.575
X60.4Y-19.425
X60.4Y-31.225
X60.575Y-27.4
X60.91Y-21.3
X61.05Y-23.976
X61.05Y-24.756
X61.2Y-27.675
X61.66Y-29.01
X61.69Y-21.3
X61.754Y-25.176
X61.754Y-25.956
X63.275Y-27.35
X63.3Y-23.775
X63.3Y-26.175
X63.3Y-28.175
X63.35Y-22.575
X63.35Y-24.95
T2
X7.175Y-10.2
X7.748Y-12.648
X8.225Y-10.175
X14.05Y-22.35
X19.0Y-19.675
X48.975Y-19.65
T0
M30
